<?xml version="1.0" encoding="UTF-8" standalone="no"?>
<svg
   xmlns:dc="http://purl.org/dc/elements/1.1/"
   xmlns:cc="http://creativecommons.org/ns#"
   xmlns:rdf="http://www.w3.org/1999/02/22-rdf-syntax-ns#"
   xmlns:svg="http://www.w3.org/2000/svg"
   xmlns="http://www.w3.org/2000/svg"
   viewBox="0 0 793.70667 407.86801"
   height="407.86801"
   width="793.70667"
   xml:space="preserve"
   id="svg2"
   version="1.1"><metadata
     id="metadata8"><rdf:RDF><cc:Work
         rdf:about=""><dc:format>image/svg+xml</dc:format><dc:type
           rdf:resource="http://purl.org/dc/dcmitype/StillImage" /></cc:Work></rdf:RDF></metadata><defs
     id="defs6"><clipPath
       id="clipPath22"
       clipPathUnits="userSpaceOnUse"><path
         id="path20"
         d="M 0,305.901 H 595.28 V 0 H 0 Z" /></clipPath></defs><g
     transform="matrix(1.3333333,0,0,-1.3333333,0,407.868)"
     id="g10"><g
       transform="translate(525.2148,136.8325)"
       id="g12"><path
         id="path14"
         style="fill:none;stroke:#ec2026;stroke-width:1;stroke-linecap:butt;stroke-linejoin:miter;stroke-miterlimit:10;stroke-dasharray:none;stroke-opacity:1"
         d="m 0,0 -379.107,0.371 -6.913,-30.264 -2.242,81.456 -2.613,-67.252 -4.49,15.875 L -446.921,0" /></g><g
       id="g16"><g
         clip-path="url(#clipPath22)"
         id="g18"><g
           transform="translate(149.6831,78.5962)"
           id="g24"><path
             id="path26"
             style="fill:#293a82;fill-opacity:1;fill-rule:evenodd;stroke:none"
             d="m 0,0 c 0,0 -40.222,20.268 -54.938,37.168 -40.884,46.923 -0.768,86.158 33.695,59.514 2.506,-1.936 4.389,-3.539 5.797,-4.826 0.344,-0.322 0.671,-0.622 0.955,-0.904 2.22,-2.132 2.146,-0.799 1.034,2.047 -0.197,0.495 -0.405,1.003 -0.62,1.52 -1.065,2.53 -2.385,5.181 -3.77,6.796 C -51.894,141.103 -148.564,59.089 0,0" /></g><g
           transform="translate(134.8389,87.6372)"
           id="g28"><path
             id="path30"
             style="fill:#eb183c;fill-opacity:1;fill-rule:evenodd;stroke:none"
             d="M 0,0 C 107.987,66.792 46.274,135.883 2.828,80.407 18.124,149.26 147.846,78.269 0,0" /></g><g
           transform="translate(221.0327,149.7974)"
           id="g32"><path
             id="path34"
             style="fill:#293a82;fill-opacity:1;fill-rule:nonzero;stroke:none"
             d="m 0,0 -2.077,-2.217 v -4.911 h -5.5 v 19.643 h 5.5 V 4.349 l 7.604,8.166 h 6.118 L 3.619,3.815 12.065,-7.128 H 5.612 Z" /></g><g
           transform="translate(245.1587,150.5825)"
           id="g36"><path
             id="path38"
             style="fill:#293a82;fill-opacity:1;fill-rule:nonzero;stroke:none"
             d="M 0,0 -2.525,6.286 -5.051,0 Z m 1.628,-4.097 h -8.307 l -1.543,-3.816 h -5.668 l 8.671,19.642 H 0.253 L 8.952,-7.913 H 3.171 Z" /></g><g
           transform="translate(264.3198,157.9351)"
           id="g40"><path
             id="path42"
             style="fill:#293a82;fill-opacity:1;fill-rule:nonzero;stroke:none"
             d="M 0,0 H -3.087 V -5.753 H 0 c 2.301,0 3.451,1.066 3.451,2.862 C 3.451,-1.066 2.301,0 0,0 m -0.057,-10.046 h -3.03 v -5.22 H -8.644 V 4.377 h 8.98 c 5.36,0 8.727,-2.778 8.727,-7.268 0,-2.89 -1.403,-5.023 -3.844,-6.201 l 4.237,-6.174 H 3.507 Z" /></g><g
           transform="translate(292.2075,146.9624)"
           id="g44"><path
             id="path46"
             style="fill:#293a82;fill-opacity:1;fill-rule:nonzero;stroke:none"
             d="M 0,0 V -4.293 H -15.771 V 15.35 h 15.407 v -4.293 h -9.907 V 7.745 h 8.728 V 3.592 h -8.728 V 0 Z" /></g><g
           transform="translate(313.9785,162.312)"
           id="g48"><path
             id="path50"
             style="fill:#293a82;fill-opacity:1;fill-rule:nonzero;stroke:none"
             d="m 0,0 v -19.643 h -4.574 l -8.67,10.467 v -10.467 h -5.445 V 0 h 4.574 l 8.672,-10.467 V 0 Z" /></g><g
           transform="translate(325.0547,152.4907)"
           id="g52"><path
             id="path54"
             style="fill:#293a82;fill-opacity:1;fill-rule:nonzero;stroke:none"
             d="m 0,0 c 0,5.977 4.574,10.214 10.805,10.214 3.619,0 6.537,-1.318 8.445,-3.704 L 15.715,3.312 c -1.235,1.487 -2.75,2.3 -4.631,2.3 C 7.857,5.612 5.613,3.367 5.613,0 c 0,-3.367 2.244,-5.612 5.471,-5.612 1.881,0 3.396,0.813 4.631,2.3 L 19.25,-6.51 C 17.342,-8.896 14.424,-10.214 10.805,-10.214 4.574,-10.214 0,-5.977 0,0" /></g><g
           transform="translate(357.9668,150.5825)"
           id="g56"><path
             id="path58"
             style="fill:#293a82;fill-opacity:1;fill-rule:nonzero;stroke:none"
             d="M 0,0 -2.525,6.286 -5.051,0 Z m 1.629,-4.097 h -8.307 l -1.543,-3.816 h -5.668 l 8.67,19.642 H 0.254 L 8.953,-7.913 H 3.172 Z" /></g><g
           transform="translate(377.1289,157.9351)"
           id="g60"><path
             id="path62"
             style="fill:#293a82;fill-opacity:1;fill-rule:nonzero;stroke:none"
             d="M 0,0 H -3.088 V -5.753 H 0 c 2.301,0 3.451,1.066 3.451,2.862 C 3.451,-1.066 2.301,0 0,0 m -0.057,-10.046 h -3.031 v -5.22 H -8.645 V 4.377 h 8.981 c 5.359,0 8.727,-2.778 8.727,-7.268 0,-2.89 -1.403,-5.023 -3.844,-6.201 l 4.236,-6.174 H 3.506 Z" /></g><g
           transform="translate(398.3105,147.103)"
           id="g64"><path
             id="path66"
             style="fill:#293a82;fill-opacity:1;fill-rule:nonzero;stroke:none"
             d="M 0,0 C 3.338,0 5.584,1.992 5.584,5.388 5.584,8.783 3.338,10.775 0,10.775 H -3.508 V 0 Z m -9.064,15.209 h 9.287 c 6.511,0 10.972,-3.788 10.972,-9.821 0,-6.034 -4.461,-9.822 -10.972,-9.822 h -9.287 z" /></g><path
           id="path68"
           style="fill:#293a82;fill-opacity:1;fill-rule:nonzero;stroke:none"
           d="m 412.418,162.312 h 5.557 v -19.643 h -5.557 z" /><g
           transform="translate(437.1367,152.4907)"
           id="g70"><path
             id="path72"
             style="fill:#293a82;fill-opacity:1;fill-rule:nonzero;stroke:none"
             d="m 0,0 c 0,3.396 -2.328,5.612 -5.303,5.612 -2.974,0 -5.302,-2.216 -5.302,-5.612 0,-3.396 2.328,-5.612 5.302,-5.612 C -2.328,-5.612 0,-3.396 0,0 m -16.219,0 c 0,5.893 4.631,10.214 10.916,10.214 6.285,0 10.916,-4.321 10.916,-10.214 0,-5.893 -4.631,-10.214 -10.916,-10.214 -6.285,0 -10.916,4.321 -10.916,10.214" /></g><g
           transform="translate(444.6523,152.4907)"
           id="g74"><path
             id="path76"
             style="fill:#293a82;fill-opacity:1;fill-rule:nonzero;stroke:none"
             d="m 0,0 c 0,5.977 4.574,10.214 10.805,10.214 3.619,0 6.537,-1.318 8.445,-3.704 L 15.715,3.312 c -1.235,1.487 -2.75,2.3 -4.631,2.3 C 7.857,5.612 5.613,3.367 5.613,0 c 0,-3.367 2.244,-5.612 5.471,-5.612 1.881,0 3.396,0.813 4.631,2.3 L 19.25,-6.51 C 17.342,-8.896 14.424,-10.214 10.805,-10.214 4.574,-10.214 0,-5.977 0,0" /></g><g
           transform="translate(477.5645,150.5825)"
           id="g78"><path
             id="path80"
             style="fill:#293a82;fill-opacity:1;fill-rule:nonzero;stroke:none"
             d="M 0,0 -2.525,6.286 -5.051,0 Z m 1.629,-4.097 h -8.307 l -1.543,-3.816 h -5.668 l 8.67,19.642 H 0.254 L 8.953,-7.913 H 3.172 Z" /></g><g
           transform="translate(496.7266,157.9351)"
           id="g82"><path
             id="path84"
             style="fill:#293a82;fill-opacity:1;fill-rule:nonzero;stroke:none"
             d="M 0,0 H -3.088 V -5.753 H 0 c 2.301,0 3.451,1.066 3.451,2.862 C 3.451,-1.066 2.301,0 0,0 m -0.057,-10.046 h -3.031 v -5.22 H -8.645 V 4.377 h 8.981 c 5.359,0 8.727,-2.778 8.727,-7.268 0,-2.89 -1.403,-5.023 -3.844,-6.201 l 4.236,-6.174 H 3.506 Z" /></g><g
           transform="translate(524.6133,146.9624)"
           id="g86"><path
             id="path88"
             style="fill:#293a82;fill-opacity:1;fill-rule:nonzero;stroke:none"
             d="M 0,0 V -4.293 H -15.77 V 15.35 H -0.363 V 11.057 H -10.27 V 7.745 h 8.727 V 3.592 H -10.27 V 0 Z" /></g><g
           transform="translate(287.2681,121.8052)"
           id="g90"><path
             id="path92"
             style="fill:#eb183c;fill-opacity:1;fill-rule:nonzero;stroke:none"
             d="m 0,0 c 0,5.977 4.574,10.214 10.804,10.214 3.619,0 6.537,-1.318 8.446,-3.704 L 15.714,3.312 c -1.234,1.487 -2.75,2.3 -4.63,2.3 C 7.857,5.612 5.612,3.367 5.612,0 c 0,-3.367 2.245,-5.612 5.472,-5.612 1.88,0 3.396,0.813 4.63,2.3 L 19.25,-6.51 C 17.341,-8.896 14.423,-10.214 10.804,-10.214 4.574,-10.214 0,-5.977 0,0" /></g><g
           transform="translate(308.9824,131.6265)"
           id="g94"><path
             id="path96"
             style="fill:#eb183c;fill-opacity:1;fill-rule:nonzero;stroke:none"
             d="m 0,0 h 5.557 v -15.237 h 9.371 v -4.406 H 0 Z" /></g><path
           id="path98"
           style="fill:#eb183c;fill-opacity:1;fill-rule:nonzero;stroke:none"
           d="m 326.096,131.626 h 5.557 v -19.643 h -5.557 z" /><g
           transform="translate(354.2949,131.6265)"
           id="g100"><path
             id="path102"
             style="fill:#eb183c;fill-opacity:1;fill-rule:nonzero;stroke:none"
             d="m 0,0 v -19.643 h -4.574 l -8.672,10.467 v -10.467 h -5.443 V 0 h 4.574 l 8.67,-10.467 V 0 Z" /></g><path
           id="path104"
           style="fill:#eb183c;fill-opacity:1;fill-rule:nonzero;stroke:none"
           d="m 358.217,131.626 h 5.557 v -19.643 h -5.557 z" /><g
           transform="translate(366.7168,121.8052)"
           id="g106"><path
             id="path108"
             style="fill:#eb183c;fill-opacity:1;fill-rule:nonzero;stroke:none"
             d="m 0,0 c 0,5.977 4.574,10.214 10.805,10.214 3.619,0 6.537,-1.318 8.445,-3.704 L 15.715,3.312 c -1.235,1.487 -2.75,2.3 -4.631,2.3 C 7.857,5.612 5.613,3.367 5.613,0 c 0,-3.367 2.244,-5.612 5.471,-5.612 1.881,0 3.396,0.813 4.631,2.3 L 19.25,-6.51 C 17.342,-8.896 14.424,-10.214 10.805,-10.214 4.574,-10.214 0,-5.977 0,0" /></g><g
           transform="translate(396.5957,131.6265)"
           id="g110"><path
             id="path112"
             style="fill:#eb183c;fill-opacity:1;fill-rule:nonzero;stroke:none"
             d="m 0,0 h 5.557 v -15.237 h 9.371 v -4.406 H 0 Z" /></g><g
           transform="translate(416.0684,127.2212)"
           id="g114"><path
             id="path116"
             style="fill:#eb183c;fill-opacity:1;fill-rule:nonzero;stroke:none"
             d="M 0,0 H -6.033 V 4.405 H 11.561 V 0 H 5.557 V -15.237 H 0 Z" /></g><g
           transform="translate(438.7656,116.4175)"
           id="g118"><path
             id="path120"
             style="fill:#eb183c;fill-opacity:1;fill-rule:nonzero;stroke:none"
             d="M 0,0 C 3.34,0 5.584,1.992 5.584,5.388 5.584,8.783 3.34,10.775 0,10.775 H -3.508 V 0 Z m -9.064,15.209 h 9.289 c 6.509,0 10.972,-3.788 10.972,-9.821 0,-6.034 -4.463,-9.822 -10.972,-9.822 h -9.289 z" /></g></g></g></g></svg>